<?xml version="1.0" encoding="UTF-8"?>
<svg xmlns="http://www.w3.org/2000/svg" xmlns:xlink="http://www.w3.org/1999/xlink"
     width="1600" height="900.0" viewBox="-8.0 -4.5 16 9">
<defs>
<clipPath id="d0">
<rect x="-7.9" y="-4.4" width="7.8" height="8.8" />
</clipPath>
</defs>
<path d="M-7.9,0 L-0.1,0" stroke="gray" stroke-width="0.1" />
<path d="M-4.0,-3.9 L-4.0,3.9" stroke="gray" stroke-width="0.1" />
<circle cx="-4.0" cy="0" r="0.2" fill="gray" />
<path d="M-5.730281636341164,1.3783808339845562 L-1.8161774311532626,-0.9226507541309106 L228.2869813803934,390.4877697646593 L224.37287717520547,392.7888013527748 Z" fill="blue" fill-opacity="0.2" stroke="gray" stroke-width="0.01" clip-path="url(#d0)" />
<path d="M-1.8161774311532626,-0.9226507541309106 L-3.3515427606749837,-1.789874387466276 L83.37082057286155,-155.32640733963842 L84.90618590238327,-154.45918370630304 Z" fill="blue" fill-opacity="0.2" stroke="gray" stroke-width="0.01" clip-path="url(#d0)" />
<path d="M-3.3515427606749837,-1.789874387466276 L-5.730281636341164,1.3783808339845562 L-322.55580378142434,-236.49550673263352 L-320.1770649057582,-239.66376195408435 Z" fill="blue" fill-opacity="0.2" stroke="gray" stroke-width="0.01" clip-path="url(#d0)" />
<path d="M-5.730281636341164,1.3783808339845562 L224.37287717520547,392.7888013527748 L-322.55580378142434,-236.49550673263352 Z" fill="red" fill-opacity="0.2" stroke="gray" stroke-width="0.01" clip-path="url(#d0)" />
<path d="M-1.8161774311532626,-0.9226507541309106 L84.90618590238327,-154.45918370630304 L228.2869813803934,390.4877697646593 Z" fill="red" fill-opacity="0.2" stroke="gray" stroke-width="0.01" clip-path="url(#d0)" />
<path d="M-3.3515427606749837,-1.789874387466276 L-320.1770649057582,-239.66376195408435 L83.37082057286155,-155.32640733963842 Z" fill="red" fill-opacity="0.2" stroke="gray" stroke-width="0.01" clip-path="url(#d0)" />
<path d="M-5.730281636341164,1.3783808339845562 L-1.8161774311532626,-0.9226507541309106 L-3.3515427606749837,-1.789874387466276 Z" fill="green" fill-opacity="0.2" stroke="black" stroke-width="0.1" />
<circle cx="-5.730281636341164" cy="1.3783808339845562" r="0.1" fill="black" />
<text x="-6.130281636341165" y="1.7783808339845564" font-size="0.5" fill="black">A</text>
<circle cx="-1.8161774311532626" cy="-0.9226507541309106" r="0.1" fill="black" />
<text x="-1.6161774311532626" y="-0.8226507541309106" font-size="0.5" fill="black">B</text>
<circle cx="-3.3515427606749837" cy="-1.789874387466276" r="0.1" fill="black" />
<text x="-3.551542760674984" y="-1.9898743874662759" font-size="0.5" fill="black">C</text>
<text x="-6.653082346141963" y="-1.791572693851647" font-size="0.5" fill="black">RAC</text>
<text x="-2.1611737348013187" y="-2.635733678733361" font-size="0.5" fill="black">RBC</text>
<path d="M5.490857330457485,1.1232532001854638 L3.239818230420698,1.176384830177148 L4.319324439121817,-0.7996380303626118 Z" fill="none" stroke="rgb(255, 0, 0)" stroke-width="0.1" />
<path d="M4.9700998667618626,-0.20199600380740818 L3.6708671997968008,0.9902363571036641 L2.1355018702750796,0.12301272376829875 L2.4858265784475346,-1.6051933183912064 L4.237704484718722,-1.8060597586733484 Z" fill="none" stroke="rgb(0, 255, 0)" stroke-width="0.1" />
</svg>