<?xml version="1.0" encoding="UTF-8"?>
<svg xmlns="http://www.w3.org/2000/svg" xmlns:xlink="http://www.w3.org/1999/xlink"
     width="800" height="600" viewBox="-400.0 -300.0 800 600">
<defs>
</defs>
<circle cx="356.7615477521683" cy="-111.49674418062932" r="10.019582947580624" fill="rgb(83,255,0)" stroke="black" stroke-width="2" />
<circle cx="-255.00436849503706" cy="-153.03468231816086" r="11.813724456947659" fill="rgb(78,255,0)" stroke="black" stroke-width="2" />
<circle cx="317.4140506163898" cy="39.29069053075784" r="15.304675169705163" fill="rgb(200,255,0)" stroke="black" stroke-width="2" />
<circle cx="-75.63121484829185" cy="-226.65936240687228" r="15.797746367176458" fill="rgb(0,255,14)" stroke="black" stroke-width="2" />
<circle cx="91.39273209282965" cy="83.54241533226303" r="18.337746767566227" fill="rgb(0,193,255)" stroke="black" stroke-width="2" />
<circle cx="259.8615586884489" cy="67.32047760700681" r="18.404857945847976" fill="rgb(0,255,46)" stroke="black" stroke-width="2" />
<circle cx="-148.93583369095157" cy="227.92870801010628" r="18.94472030531093" fill="rgb(39,255,0)" stroke="black" stroke-width="2" />
<circle cx="-165.18176214372022" cy="-232.4341852202627" r="16.4645692184366" fill="rgb(0,255,115)" stroke="black" stroke-width="2" />
<circle cx="-327.97326003044304" cy="-206.9042777959324" r="16.968535602122284" fill="rgb(255,108,0)" stroke="black" stroke-width="2" />
<circle cx="-312.2832773666461" cy="272.83723247620435" r="14.272134011648093" fill="rgb(205,0,255)" stroke="black" stroke-width="2" />
<circle cx="-105.73344317919748" cy="75.4646521296284" r="15.231655020979941" fill="rgb(14,0,255)" stroke="black" stroke-width="2" />
<circle cx="312.1669234141291" cy="-179.96443595829385" r="12.90754448760794" fill="rgb(0,255,207)" stroke="black" stroke-width="2" />
<circle cx="159.4209513099281" cy="-257.88668460480596" r="12.404842979827137" fill="rgb(0,255,142)" stroke="black" stroke-width="2" />
<circle cx="-103.92375847649436" cy="-208.7679280944673" r="13.836308498302444" fill="rgb(0,34,255)" stroke="black" stroke-width="2" />
<circle cx="-264.7888288922442" cy="241.82376340904364" r="14.227110251230146" fill="rgb(255,0,218)" stroke="black" stroke-width="2" />
<circle cx="-150.54983144603526" cy="5.300473158216278" r="14.298847252646105" fill="rgb(34,255,0)" stroke="black" stroke-width="2" />
<circle cx="379.3517508358883" cy="262.01171327548866" r="19.235975179296375" fill="rgb(176,255,0)" stroke="black" stroke-width="2" />
<circle cx="254.5022988463761" cy="25.99318221044541" r="15.118410656245556" fill="rgb(255,181,0)" stroke="black" stroke-width="2" />
<circle cx="-221.62466565555295" cy="232.01753931695225" r="19.416567006258813" fill="rgb(86,255,0)" stroke="black" stroke-width="2" />
<circle cx="211.5831322298053" cy="-144.36116702273122" r="10.007049912606934" fill="rgb(164,255,0)" stroke="black" stroke-width="2" />
<circle cx="84.5320285404672" cy="-238.49335113208252" r="17.183255411681344" fill="rgb(255,0,127)" stroke="black" stroke-width="2" />
<circle cx="342.79879887954655" cy="-232.58097658001554" r="18.248653747476673" fill="rgb(255,0,105)" stroke="black" stroke-width="2" />
<circle cx="14.77000638705789" cy="-177.70663898328098" r="15.86870194568089" fill="rgb(0,16,255)" stroke="black" stroke-width="2" />
<circle cx="-340.3443327641294" cy="6.245240035482539" r="19.05412219548688" fill="rgb(0,255,71)" stroke="black" stroke-width="2" />
<circle cx="-284.16493440980673" cy="112.18125089084117" r="19.934161848903585" fill="rgb(255,55,0)" stroke="black" stroke-width="2" />
<circle cx="155.33911396611597" cy="121.0782708662806" r="15.373053279112847" fill="rgb(0,21,255)" stroke="black" stroke-width="2" />
<circle cx="242.35249164316167" cy="223.81447756409642" r="14.99127677079802" fill="rgb(186,0,255)" stroke="black" stroke-width="2" />
<circle cx="25.353392695376726" cy="163.5175639735143" r="10.000744385487387" fill="rgb(255,144,0)" stroke="black" stroke-width="2" />
<circle cx="106.04815243819138" cy="230.58141233149564" r="13.250297115468346" fill="rgb(37,0,255)" stroke="black" stroke-width="2" />
<circle cx="-296.3736475321381" cy="-165.66106715166555" r="12.797253195925933" fill="rgb(255,0,88)" stroke="black" stroke-width="2" />
<circle cx="48.81275618648533" cy="202.14302327931836" r="19.660553376237637" fill="rgb(182,255,0)" stroke="black" stroke-width="2" />
<circle cx="-344.1129409444153" cy="-257.0747224242161" r="15.363347008728189" fill="rgb(255,0,63)" stroke="black" stroke-width="2" />
<circle cx="9.061923100650802" cy="50.05761998458303" r="18.59212794735582" fill="rgb(138,0,255)" stroke="black" stroke-width="2" />
<circle cx="-208.97613375250114" cy="40.42642690202791" r="16.578064075253426" fill="rgb(100,0,255)" stroke="black" stroke-width="2" />
<circle cx="-271.17692064794846" cy="-78.96742737828001" r="12.556765030397713" fill="rgb(0,255,225)" stroke="black" stroke-width="2" />
<circle cx="-131.40144232012864" cy="-157.71095216958213" r="13.857251197500112" fill="rgb(255,0,52)" stroke="black" stroke-width="2" />
<circle cx="-73.55562665600758" cy="-105.42283307604629" r="18.13933440663465" fill="rgb(0,8,255)" stroke="black" stroke-width="2" />
<circle cx="-159.99366665766757" cy="92.79896050948105" r="14.78529393961635" fill="rgb(0,255,251)" stroke="black" stroke-width="2" />
<circle cx="-174.7570798898433" cy="139.89586866739847" r="11.420066624744502" fill="rgb(1,255,0)" stroke="black" stroke-width="2" />
<circle cx="317.441644428774" cy="-127.63113774194977" r="18.069671652937842" fill="rgb(0,255,107)" stroke="black" stroke-width="2" />
<circle cx="-60.16778888397846" cy="-139.903318193992" r="15.888819700360806" fill="rgb(0,234,255)" stroke="black" stroke-width="2" />
<circle cx="327.675952351124" cy="-34.26845003669388" r="19.63075735724676" fill="rgb(255,0,184)" stroke="black" stroke-width="2" />
<circle cx="78.85533340080406" cy="-69.25374656069502" r="10.848799127632434" fill="rgb(0,255,169)" stroke="black" stroke-width="2" />
<circle cx="-242.81484772498217" cy="127.76715746259254" r="15.584498391796346" fill="rgb(135,0,255)" stroke="black" stroke-width="2" />
<circle cx="-276.56178766384727" cy="14.305835912593238" r="12.182083923316384" fill="rgb(255,138,0)" stroke="black" stroke-width="2" />
<circle cx="-251.23701534376605" cy="-221.50771617116177" r="11.721712489043533" fill="rgb(0,255,106)" stroke="black" stroke-width="2" />
<circle cx="172.8471370786424" cy="-147.09667103287853" r="19.16753698619761" fill="rgb(0,233,255)" stroke="black" stroke-width="2" />
<circle cx="210.88358996010936" cy="121.3828747215693" r="16.41882888557749" fill="rgb(0,255,130)" stroke="black" stroke-width="2" />
<circle cx="230.61389109445997" cy="-205.09423029307897" r="12.836285351179999" fill="rgb(192,0,255)" stroke="black" stroke-width="2" />
<circle cx="-12.443705149463995" cy="-222.01263588099326" r="10.221416502794925" fill="rgb(64,255,0)" stroke="black" stroke-width="2" />
<circle cx="198.5233910485441" cy="209.69655031275965" r="16.11023234067998" fill="rgb(0,255,164)" stroke="black" stroke-width="2" />
<circle cx="345.667474771495" cy="229.86491874734338" r="13.84329789008894" fill="rgb(255,65,0)" stroke="black" stroke-width="2" />
<circle cx="-332.9513080045994" cy="152.51550384362258" r="17.985076387597964" fill="rgb(255,0,24)" stroke="black" stroke-width="2" />
<circle cx="-215.2278105012977" cy="-204.0674314384918" r="13.374919351147176" fill="rgb(255,0,252)" stroke="black" stroke-width="2" />
<circle cx="144.76660157080732" cy="184.07485746788836" r="14.591380471580901" fill="rgb(0,255,254)" stroke="black" stroke-width="2" />
<circle cx="-100.25142757385117" cy="-134.39830026868842" r="15.082767317412308" fill="rgb(152,255,0)" stroke="black" stroke-width="2" />
<circle cx="-198.17947927435364" cy="-124.98650025023741" r="18.93953374340483" fill="rgb(0,130,255)" stroke="black" stroke-width="2" />
<circle cx="-61.87479587004299" cy="274.03463055985776" r="15.731440446984259" fill="rgb(81,255,0)" stroke="black" stroke-width="2" />
<circle cx="87.96815828603008" cy="250.67254087440062" r="11.284630485666948" fill="rgb(37,255,0)" stroke="black" stroke-width="2" />
<circle cx="-372.92079879638027" cy="4.425763547128156" r="12.26812984464004" fill="rgb(0,255,164)" stroke="black" stroke-width="2" />
<circle cx="-3.576221610697189" cy="-84.83754896032673" r="10.248340753724865" fill="rgb(252,0,255)" stroke="black" stroke-width="2" />
<circle cx="29.93858520217418" cy="16.398318183583" r="18.290880141296384" fill="rgb(0,106,255)" stroke="black" stroke-width="2" />
<circle cx="137.84944800946414" cy="-119.28066702735626" r="15.846017053940809" fill="rgb(255,59,0)" stroke="black" stroke-width="2" />
<circle cx="-224.24742854950782" cy="178.57860183556397" r="16.686788977671608" fill="rgb(0,255,106)" stroke="black" stroke-width="2" />
<circle cx="-215.0862780419431" cy="-0.055659193482995306" r="17.231874313892487" fill="rgb(159,255,0)" stroke="black" stroke-width="2" />
<circle cx="233.7666429349399" cy="-42.83775589160163" r="14.216555555180706" fill="rgb(255,0,68)" stroke="black" stroke-width="2" />
<circle cx="-273.10447906983427" cy="152.78425373773587" r="18.427162474221802" fill="rgb(97,255,0)" stroke="black" stroke-width="2" />
<circle cx="-109.87125947502142" cy="-31.7349556216802" r="14.989149359959168" fill="rgb(0,158,255)" stroke="black" stroke-width="2" />
<circle cx="49.64434495400144" cy="-36.47939333878162" r="10.727203239389334" fill="rgb(229,0,255)" stroke="black" stroke-width="2" />
<circle cx="-250.95869726873593" cy="-110.02856797246747" r="10.662418832800654" fill="rgb(101,0,255)" stroke="black" stroke-width="2" />
<circle cx="-51.56714427345776" cy="96.65873414936993" r="18.34344023887133" fill="rgb(0,255,246)" stroke="black" stroke-width="2" />
<circle cx="177.35500643391117" cy="176.87694570376095" r="16.275870372885414" fill="rgb(255,165,0)" stroke="black" stroke-width="2" />
<circle cx="245.0310364722951" cy="-268.58429971041676" r="12.039417689791998" fill="rgb(255,191,0)" stroke="black" stroke-width="2" />
<circle cx="99.57612435131733" cy="-42.79645095019353" r="17.950442198758324" fill="rgb(0,255,124)" stroke="black" stroke-width="2" />
<circle cx="176.08536363676149" cy="264.8498214390654" r="19.389821447573798" fill="rgb(38,255,0)" stroke="black" stroke-width="2" />
<circle cx="24.265313234403436" cy="-31.5618241083167" r="12.677754310356105" fill="rgb(167,0,255)" stroke="black" stroke-width="2" />
<circle cx="368.43041954048033" cy="162.49226377935827" r="16.01255890863836" fill="rgb(255,0,228)" stroke="black" stroke-width="2" />
<circle cx="-253.15370465436663" cy="214.59020184685295" r="12.129399090096367" fill="rgb(147,255,0)" stroke="black" stroke-width="2" />
<circle cx="-349.4938212377296" cy="-125.54221489998571" r="15.204651639966986" fill="rgb(66,0,255)" stroke="black" stroke-width="2" />
<circle cx="205.92084039812767" cy="36.971482693624466" r="14.825411611706771" fill="rgb(0,201,255)" stroke="black" stroke-width="2" />
<circle cx="-62.905102482296115" cy="-278.23526766629595" r="18.522114589590384" fill="rgb(0,255,84)" stroke="black" stroke-width="2" />
<circle cx="255.90543518839695" cy="190.41082444776305" r="16.725052172029855" fill="rgb(255,0,74)" stroke="black" stroke-width="2" />
<circle cx="40.46343286867773" cy="-243.1808079044815" r="19.98750483054565" fill="rgb(40,255,0)" stroke="black" stroke-width="2" />
<circle cx="234.3532531239871" cy="169.30614527744376" r="10.852976114919358" fill="rgb(255,0,79)" stroke="black" stroke-width="2" />
<circle cx="117.03614335767526" cy="-265.8254409648781" r="16.12807320519182" fill="rgb(139,0,255)" stroke="black" stroke-width="2" />
<circle cx="-358.50756075753293" cy="-72.22301591658464" r="10.22612075313106" fill="rgb(0,255,65)" stroke="black" stroke-width="2" />
<circle cx="307.7307205341965" cy="-279.47700648742125" r="18.341864252982287" fill="rgb(255,0,55)" stroke="black" stroke-width="2" />
<circle cx="-14.430442058090364" cy="-165.66457237655203" r="13.444362401455757" fill="rgb(93,255,0)" stroke="black" stroke-width="2" />
<circle cx="-7.762519020365687" cy="187.56045698143862" r="19.73458649960029" fill="rgb(255,9,0)" stroke="black" stroke-width="2" />
<circle cx="-377.07017307172737" cy="-182.5183409085073" r="17.961437036945796" fill="rgb(0,207,255)" stroke="black" stroke-width="2" />
<circle cx="168.59296732482346" cy="-71.79317626286348" r="16.701141133035726" fill="rgb(0,15,255)" stroke="black" stroke-width="2" />
<circle cx="288.02054290689864" cy="112.5657466134412" r="16.02581888972948" fill="rgb(255,0,0)" stroke="black" stroke-width="2" />
<circle cx="-304.4972432563027" cy="57.365082722782574" r="12.729402526610585" fill="rgb(235,255,0)" stroke="black" stroke-width="2" />
<circle cx="-327.25810568688075" cy="-154.74449458334942" r="16.982878487543182" fill="rgb(237,0,255)" stroke="black" stroke-width="2" />
<circle cx="80.57496970441923" cy="-109.74648487994637" r="17.15389993773632" fill="rgb(36,255,0)" stroke="black" stroke-width="2" />
<circle cx="301.3554763821095" cy="-55.5198154495678" r="11.3202098766282" fill="rgb(75,255,0)" stroke="black" stroke-width="2" />
<circle cx="-67.40683272427918" cy="190.5677334737315" r="15.963586850595068" fill="rgb(255,0,99)" stroke="black" stroke-width="2" />
<circle cx="-310.0062046797935" cy="-273.5900438348269" r="11.426937358797506" fill="rgb(42,255,0)" stroke="black" stroke-width="2" />
<circle cx="190.68793262381973" cy="-247.86252360638866" r="18.000165053590138" fill="rgb(0,136,255)" stroke="black" stroke-width="2" />
<circle cx="233.21049020916735" cy="84.7081097017707" r="11.937625512709735" fill="rgb(255,23,0)" stroke="black" stroke-width="2" />
<circle cx="-275.52777703253884" cy="-49.307176308676134" r="14.362335016290487" fill="rgb(1,0,255)" stroke="black" stroke-width="2" />
<circle cx="82.81638371510462" cy="119.49474085550509" r="12.282872012162118" fill="rgb(106,0,255)" stroke="black" stroke-width="2" />
<circle cx="-257.84385693146373" cy="63.81678113079647" r="10.150682140434718" fill="rgb(0,2,255)" stroke="black" stroke-width="2" />
<circle cx="165.98709251758544" cy="-100.64228957307188" r="10.393191240657767" fill="rgb(0,255,56)" stroke="black" stroke-width="2" />
<circle cx="149.57203736237545" cy="-204.86275942201456" r="16.53311454202736" fill="rgb(255,25,0)" stroke="black" stroke-width="2" />
<circle cx="-90.13984295458715" cy="24.655383034078568" r="14.728107653877519" fill="rgb(0,187,255)" stroke="black" stroke-width="2" />
<circle cx="306.02011462291716" cy="196.33927804514065" r="19.89226073763455" fill="rgb(0,255,99)" stroke="black" stroke-width="2" />
<circle cx="36.78025850779403" cy="-141.5927302346601" r="13.624683812424292" fill="rgb(255,205,0)" stroke="black" stroke-width="2" />
<circle cx="216.0199880189757" cy="236.86820431085619" r="13.022109331509231" fill="rgb(255,218,0)" stroke="black" stroke-width="2" />
<circle cx="193.10476346208577" cy="81.62973748405005" r="12.772581622431984" fill="rgb(255,0,124)" stroke="black" stroke-width="2" />
<circle cx="-172.5895714814882" cy="-38.49218399928401" r="13.257687249033268" fill="rgb(255,139,0)" stroke="black" stroke-width="2" />
<circle cx="-215.89137443145856" cy="-58.954493688671675" r="17.833544736097384" fill="rgb(78,0,255)" stroke="black" stroke-width="2" />
<circle cx="151.69049352547927" cy="7.534342801787659" r="18.213203285274304" fill="rgb(255,0,112)" stroke="black" stroke-width="2" />
<circle cx="63.74220228979965" cy="-175.2184173686212" r="17.975026142441" fill="rgb(255,63,0)" stroke="black" stroke-width="2" />
<circle cx="-108.65870106225873" cy="-237.4295791741956" r="14.662442830031337" fill="rgb(255,133,0)" stroke="black" stroke-width="2" />
<circle cx="-296.82117189753365" cy="-207.52787126647357" r="13.571330569093744" fill="rgb(68,0,255)" stroke="black" stroke-width="2" />
<circle cx="-174.83271285904232" cy="252.52893576718122" r="14.445004764272717" fill="rgb(255,0,145)" stroke="black" stroke-width="2" />
<circle cx="-37.113533445498945" cy="221.27021638589252" r="15.177171712348645" fill="rgb(0,255,236)" stroke="black" stroke-width="2" />
<circle cx="-135.33967409621155" cy="41.753443317050596" r="19.126702446413024" fill="rgb(0,116,255)" stroke="black" stroke-width="2" />
<circle cx="145.85723627539255" cy="-33.86877162571574" r="19.449470812439177" fill="rgb(255,0,57)" stroke="black" stroke-width="2" />
<circle cx="135.18392396648755" cy="215.31458013332934" r="11.336464332049392" fill="rgb(255,0,183)" stroke="black" stroke-width="2" />
<circle cx="-87.96209317957283" cy="154.62980165953206" r="15.264566402448697" fill="rgb(255,0,237)" stroke="black" stroke-width="2" />
<circle cx="59.248515224570724" cy="259.32628372972124" r="16.385629827962397" fill="rgb(0,178,255)" stroke="black" stroke-width="2" />
<circle cx="-274.82634299376275" cy="-248.67129199924454" r="13.712097489563064" fill="rgb(0,255,21)" stroke="black" stroke-width="2" />
<circle cx="267.4219365799289" cy="-81.06641604313117" r="13.457182654941576" fill="rgb(107,0,255)" stroke="black" stroke-width="2" />
<circle cx="352.8458369646929" cy="0.8042326660240633" r="12.730625162316448" fill="rgb(26,255,0)" stroke="black" stroke-width="2" />
<circle cx="50.81019606788362" cy="101.57231714354151" r="17.986653242833402" fill="rgb(255,0,202)" stroke="black" stroke-width="2" />
<circle cx="11.045428333275197" cy="96.39126481201703" r="10.856820847566066" fill="rgb(255,68,0)" stroke="black" stroke-width="2" />
<circle cx="215.39350983193128" cy="-79.5429520100223" r="13.26302027191943" fill="rgb(45,0,255)" stroke="black" stroke-width="2" />
<circle cx="-18.552146597373337" cy="-14.908202965110888" r="10.942175589146988" fill="rgb(24,255,0)" stroke="black" stroke-width="2" />
<circle cx="-94.79161416583327" cy="-70.09164993533304" r="11.842123864754488" fill="rgb(255,95,0)" stroke="black" stroke-width="2" />
<circle cx="267.6280352227883" cy="-134.5163638821428" r="15.767718330666675" fill="rgb(255,0,42)" stroke="black" stroke-width="2" />
<circle cx="348.7645210311731" cy="-185.90862485230562" r="12.782049200356045" fill="rgb(255,0,127)" stroke="black" stroke-width="2" />
<circle cx="270.5896514190907" cy="-25.95139070137469" r="19.215268059417657" fill="rgb(255,0,225)" stroke="black" stroke-width="2" />
<circle cx="-244.32725262987927" cy="-260.1178640938614" r="18.841317458235615" fill="rgb(255,26,0)" stroke="black" stroke-width="2" />
<circle cx="110.73866404252016" cy="181.70188842000027" r="16.954985002649853" fill="rgb(0,105,255)" stroke="black" stroke-width="2" />
<circle cx="-362.20287365072306" cy="193.8554160070184" r="15.916690388078447" fill="rgb(38,0,255)" stroke="black" stroke-width="2" />
<circle cx="-104.4607027574769" cy="110.19951600899071" r="13.249444088745706" fill="rgb(255,0,126)" stroke="black" stroke-width="2" />
<circle cx="-363.5089386130975" cy="79.64576166158668" r="15.217162031131389" fill="rgb(255,0,136)" stroke="black" stroke-width="2" />
<circle cx="3.046547337127322" cy="-60.67501710208228" r="10.034474529589072" fill="rgb(123,0,255)" stroke="black" stroke-width="2" />
<circle cx="-99.10032022993386" cy="220.44310114353397" r="14.231651784735789" fill="rgb(112,0,255)" stroke="black" stroke-width="2" />
<circle cx="184.4183775652375" cy="-179.6330013778021" r="12.005946329737043" fill="rgb(0,223,255)" stroke="black" stroke-width="2" />
<circle cx="-318.9308028166328" cy="-104.21537683635643" r="13.712278258274765" fill="rgb(67,0,255)" stroke="black" stroke-width="2" />
<circle cx="216.72108366865416" cy="-268.31423067795527" r="12.251794690680619" fill="rgb(255,0,171)" stroke="black" stroke-width="2" />
<circle cx="339.4757311954163" cy="75.6178815681231" r="11.417227345877935" fill="rgb(0,255,110)" stroke="black" stroke-width="2" />
<circle cx="-334.6405915906041" cy="-79.43389269824894" r="13.590539247052902" fill="rgb(255,209,0)" stroke="black" stroke-width="2" />
<circle cx="119.58827146993542" cy="130.493488545785" r="10.362122272839958" fill="rgb(255,0,250)" stroke="black" stroke-width="2" />
<circle cx="-203.9661016684822" cy="-252.62651967644524" r="16.914337825557997" fill="rgb(0,28,255)" stroke="black" stroke-width="2" />
<circle cx="-45.69534827177176" cy="-243.0622392436817" r="15.106470290793816" fill="rgb(255,0,129)" stroke="black" stroke-width="2" />
<circle cx="-107.83057486659749" cy="182.98348913797764" r="19.293320554200687" fill="rgb(0,188,255)" stroke="black" stroke-width="2" />
<circle cx="-325.4955073472659" cy="200.57665332288377" r="11.331839957256324" fill="rgb(0,255,2)" stroke="black" stroke-width="2" />
<circle cx="103.95292588615513" cy="45.67598864096817" r="18.00833723790087" fill="rgb(0,255,235)" stroke="black" stroke-width="2" />
<circle cx="374.26086107302035" cy="17.40545243561786" r="13.302927462938163" fill="rgb(255,77,0)" stroke="black" stroke-width="2" />
<circle cx="322.51696240156195" cy="113.99249405170184" r="10.895677744071548" fill="rgb(255,241,0)" stroke="black" stroke-width="2" />
<circle cx="-24.369722090928633" cy="118.01465771110298" r="12.939432105328677" fill="rgb(0,255,100)" stroke="black" stroke-width="2" />
<circle cx="-114.04130550480744" cy="-0.8102621585103975" r="16.015104862387822" fill="rgb(255,0,119)" stroke="black" stroke-width="2" />
<circle cx="324.08774262155146" cy="-72.06238117329883" r="15.147956022716368" fill="rgb(255,0,238)" stroke="black" stroke-width="2" />
<circle cx="114.85226451042786" cy="-86.00634561367715" r="14.348476779195545" fill="rgb(255,209,0)" stroke="black" stroke-width="2" />
<circle cx="-17.607489327687972" cy="-121.90484008759984" r="16.128636257983203" fill="rgb(255,217,0)" stroke="black" stroke-width="2" />
<circle cx="-126.45909865195824" cy="145.4503008819035" r="13.05006299267885" fill="rgb(0,255,28)" stroke="black" stroke-width="2" />
<circle cx="-64.51404991085764" cy="52.16608573618049" r="19.583762308104838" fill="rgb(0,234,255)" stroke="black" stroke-width="2" />
<circle cx="-312.50063176766207" cy="-62.5297406896382" r="11.06686080104918" fill="rgb(0,255,68)" stroke="black" stroke-width="2" />
<circle cx="208.83913743575624" cy="1.1549007620662337" r="15.157705221059956" fill="rgb(13,255,0)" stroke="black" stroke-width="2" />
<circle cx="282.1858635909107" cy="-244.65284793147802" r="15.592231162153539" fill="rgb(0,187,255)" stroke="black" stroke-width="2" />
<circle cx="-28.048931058002097" cy="68.60654339508255" r="17.83421343916602" fill="rgb(0,255,197)" stroke="black" stroke-width="2" />
<circle cx="248.8974224746912" cy="-234.19993411396098" r="12.207485136754617" fill="rgb(0,38,255)" stroke="black" stroke-width="2" />
<circle cx="235.4557763964782" cy="-151.66191823285055" r="14.845484775459923" fill="rgb(0,49,255)" stroke="black" stroke-width="2" />
<circle cx="-49.38591325879196" cy="-25.776864593462733" r="14.34843566748702" fill="rgb(196,255,0)" stroke="black" stroke-width="2" />
<circle cx="-277.0590173600125" cy="-110.21545445653001" r="11.759724050523737" fill="rgb(30,0,255)" stroke="black" stroke-width="2" />
<circle cx="-191.25281173892202" cy="103.25996706311861" r="14.9158226715335" fill="rgb(111,255,0)" stroke="black" stroke-width="2" />
<circle cx="-106.32433375935375" cy="245.72583279898151" r="11.096391121967283" fill="rgb(225,0,255)" stroke="black" stroke-width="2" />
<circle cx="168.15848500663378" cy="-226.61444853202988" r="11.587751185288981" fill="rgb(255,104,0)" stroke="black" stroke-width="2" />
<circle cx="63.86536583697449" cy="-138.72088792898373" r="10.001837879779439" fill="rgb(134,0,255)" stroke="black" stroke-width="2" />
<circle cx="198.71584733929308" cy="-201.29033621430057" r="12.940985267923024" fill="rgb(0,255,155)" stroke="black" stroke-width="2" />
<circle cx="-311.3076274646372" cy="-237.51899306239596" r="10.373654632459226" fill="rgb(255,109,0)" stroke="black" stroke-width="2" />
<circle cx="372.182653294421" cy="-252.70104077277827" r="17.077038317497074" fill="rgb(255,64,0)" stroke="black" stroke-width="2" />
<circle cx="-65.64746728866874" cy="-180.0851711043959" r="15.786688730982522" fill="rgb(0,255,186)" stroke="black" stroke-width="2" />
<circle cx="-153.21464856656894" cy="-80.7980942743834" r="14.020643729694767" fill="rgb(47,255,0)" stroke="black" stroke-width="2" />
<circle cx="103.17247622582619" cy="278.1573940753202" r="10.523638216281107" fill="rgb(255,101,0)" stroke="black" stroke-width="2" />
<circle cx="62.481130707554655" cy="38.622129846996984" r="17.075523884397995" fill="rgb(42,0,255)" stroke="black" stroke-width="2" />
<circle cx="-105.34880836606357" cy="275.7072532598762" r="10.97292648155842" fill="rgb(94,0,255)" stroke="black" stroke-width="2" />
<circle cx="-17.56807960473816" cy="-252.439391114006" r="12.587135560978947" fill="rgb(255,0,99)" stroke="black" stroke-width="2" />
<circle cx="-358.89422430660005" cy="128.211997448754" r="12.360683995774762" fill="rgb(255,246,0)" stroke="black" stroke-width="2" />
<circle cx="-167.20306634871042" cy="-103.73312447168078" r="10.803477738693601" fill="rgb(83,255,0)" stroke="black" stroke-width="2" />
<circle cx="-232.77220210493735" cy="96.80935817467002" r="10.788888865952668" fill="rgb(91,255,0)" stroke="black" stroke-width="2" />
<circle cx="-300.0862849099123" cy="249.09674063931732" r="11.41980727329352" fill="rgb(0,150,255)" stroke="black" stroke-width="2" />
<circle cx="219.68057181164954" cy="187.8740263705945" r="12.065230910095877" fill="rgb(255,189,0)" stroke="black" stroke-width="2" />
<circle cx="375.64036921018635" cy="207.21429734349812" r="14.806967912126698" fill="rgb(255,69,0)" stroke="black" stroke-width="2" />
<circle cx="-194.53892061542982" cy="180.97550333962602" r="11.613896099528635" fill="rgb(95,255,0)" stroke="black" stroke-width="2" />
<circle cx="278.29165065090046" cy="155.4345173030835" r="14.83906287687067" fill="rgb(0,95,255)" stroke="black" stroke-width="2" />
<circle cx="372.78144471555606" cy="129.15561460557473" r="15.557632716117308" fill="rgb(255,1,0)" stroke="black" stroke-width="2" />
<circle cx="206.96352805096137" cy="154.11274229427136" r="15.938004054225516" fill="rgb(0,201,255)" stroke="black" stroke-width="2" />
<circle cx="358.42315440438097" cy="-146.1637514000889" r="14.296629629904498" fill="rgb(255,223,0)" stroke="black" stroke-width="2" />
<circle cx="227.64488072802453" cy="268.090113560835" r="12.093656152401095" fill="rgb(161,0,255)" stroke="black" stroke-width="2" />
<circle cx="-118.51183375906089" cy="-93.56665432144837" r="14.077354964418944" fill="rgb(0,27,255)" stroke="black" stroke-width="2" />
<circle cx="-357.20882847880966" cy="277.62236722759155" r="11.828602951656293" fill="rgb(255,222,0)" stroke="black" stroke-width="2" />
<circle cx="-201.55209634194807" cy="257.867888488492" r="11.514603849832726" fill="rgb(174,0,255)" stroke="black" stroke-width="2" />
<circle cx="-25.30004864067439" cy="-194.72612810822926" r="16.815788442738253" fill="rgb(114,0,255)" stroke="black" stroke-width="2" />
<circle cx="378.6846809162889" cy="-175.3700929763278" r="16.653317548383182" fill="rgb(0,255,4)" stroke="black" stroke-width="2" />
<circle cx="318.277117951769" cy="248.05650694412702" r="13.32758472210999" fill="rgb(0,255,26)" stroke="black" stroke-width="2" />
<circle cx="3.2139757012152472" cy="-3.700924731015675" r="12.29103496699232" fill="rgb(14,255,0)" stroke="black" stroke-width="2" />
<circle cx="60.052076604050114" cy="140.7609868874427" r="12.174501905518872" fill="rgb(255,208,0)" stroke="black" stroke-width="2" />
<circle cx="-117.04597441246625" cy="-271.2038495141461" r="17.333084461028648" fill="rgb(255,71,0)" stroke="black" stroke-width="2" />
<circle cx="-379.54877181182337" cy="-43.03932510172288" r="14.16705941337962" fill="rgb(0,255,169)" stroke="black" stroke-width="2" />
<circle cx="127.61117064500547" cy="79.81471402658167" r="13.560571196576774" fill="rgb(255,0,120)" stroke="black" stroke-width="2" />
<circle cx="-348.3896395118207" cy="247.49229817452624" r="14.462016227919747" fill="rgb(0,255,28)" stroke="black" stroke-width="2" />
<circle cx="15.953429627115383" cy="247.4022348185382" r="19.547169220822326" fill="rgb(81,255,0)" stroke="black" stroke-width="2" />
<circle cx="371.91915953275475" cy="-214.13509419296128" r="12.368225494283926" fill="rgb(0,191,255)" stroke="black" stroke-width="2" />
<circle cx="-373.20287019208723" cy="-216.3950631779512" r="13.430967414684073" fill="rgb(251,0,255)" stroke="black" stroke-width="2" />
<circle cx="153.21363457283508" cy="232.96637182624875" r="13.359687927644146" fill="rgb(74,0,255)" stroke="black" stroke-width="2" />
<circle cx="369.06477255662617" cy="-23.420875289251796" r="12.70059809709285" fill="rgb(0,176,255)" stroke="black" stroke-width="2" />
<circle cx="290.64989264848623" cy="256.0813038358509" r="13.653864486944602" fill="rgb(0,255,18)" stroke="black" stroke-width="2" />
<circle cx="173.42442334601787" cy="48.82013719778092" r="10.355588464916648" fill="rgb(255,0,171)" stroke="black" stroke-width="2" />
<circle cx="-231.40442110848497" cy="-174.92755417589782" r="19.378575247971305" fill="rgb(165,0,255)" stroke="black" stroke-width="2" />
<circle cx="101.96002316491814" cy="-208.16823290358275" r="13.668706483482019" fill="rgb(153,255,0)" stroke="black" stroke-width="2" />
<circle cx="376.5971421316898" cy="-82.29435484544692" r="14.956114712280618" fill="rgb(239,0,255)" stroke="black" stroke-width="2" />
<circle cx="84.21694607383535" cy="-0.8762872136389888" r="14.808810145940967" fill="rgb(63,0,255)" stroke="black" stroke-width="2" />
<circle cx="-375.8168092613701" cy="258.9588860478025" r="12.717134679410353" fill="rgb(255,253,0)" stroke="black" stroke-width="2" />
<circle cx="317.0412746673055" cy="-208.37726088615926" r="12.397034249588701" fill="rgb(255,0,31)" stroke="black" stroke-width="2" />
<circle cx="279.99373980211124" cy="-185.7505121155021" r="15.511344168703236" fill="rgb(255,0,19)" stroke="black" stroke-width="2" />
<circle cx="-247.73951701820778" cy="261.0449610227879" r="10.31814315130662" fill="rgb(255,0,126)" stroke="black" stroke-width="2" />
<circle cx="-253.4008339762341" cy="189.99507625320683" r="12.24920078116391" fill="rgb(195,0,255)" stroke="black" stroke-width="2" />
<circle cx="-193.0471045063174" cy="-93.97622938365299" r="11.617826307271994" fill="rgb(56,0,255)" stroke="black" stroke-width="2" />
<circle cx="22.34555476392609" cy="-88.50727281935224" r="13.952423968446938" fill="rgb(0,142,255)" stroke="black" stroke-width="2" />
<circle cx="-49.35258170323988" cy="137.07077871534864" r="17.556308419527095" fill="rgb(20,255,0)" stroke="black" stroke-width="2" />
<circle cx="115.64692753652633" cy="-157.93910722929684" r="16.429340756917174" fill="rgb(255,63,0)" stroke="black" stroke-width="2" />
<circle cx="-245.54793634830767" cy="-9.779338768351693" r="13.687307985816021" fill="rgb(42,255,0)" stroke="black" stroke-width="2" />
<circle cx="-299.78115539584735" cy="211.1085558239082" r="11.483877201452161" fill="rgb(134,0,255)" stroke="black" stroke-width="2" />
<circle cx="-134.4851501365528" cy="255.9304032700303" r="11.0227115902202" fill="rgb(255,248,0)" stroke="black" stroke-width="2" />
<circle cx="-157.54643405758122" cy="-198.25345275632773" r="18.30213985324523" fill="rgb(0,255,113)" stroke="black" stroke-width="2" />
<circle cx="-180.86990906342973" cy="42.99985029960152" r="11.398243487834721" fill="rgb(255,1,0)" stroke="black" stroke-width="2" />
<circle cx="-200.03141391305135" cy="72.41781617493666" r="10.143387596844804" fill="rgb(75,0,255)" stroke="black" stroke-width="2" />
<circle cx="-347.58343203622485" cy="-30.13551332453943" r="16.24080271475762" fill="rgb(0,186,255)" stroke="black" stroke-width="2" />
<circle cx="152.5098834129367" cy="66.61088046597183" r="12.199186012448298" fill="rgb(0,255,190)" stroke="black" stroke-width="2" />
<circle cx="-265.57967971175003" cy="40.46965099315844" r="11.633183591884057" fill="rgb(255,240,0)" stroke="black" stroke-width="2" />
<circle cx="-201.97215056738992" cy="-158.27837457733162" r="12.075111441563148" fill="rgb(0,255,200)" stroke="black" stroke-width="2" />
<circle cx="-28.472513692056282" cy="16.99585075884761" r="16.27412346629835" fill="rgb(255,0,83)" stroke="black" stroke-width="2" />
<circle cx="223.17884128736284" cy="-113.50744902793403" r="14.555527054455569" fill="rgb(255,0,244)" stroke="black" stroke-width="2" />
<circle cx="270.1270470329388" cy="236.6408208668006" r="12.893913923714685" fill="rgb(0,79,255)" stroke="black" stroke-width="2" />
<circle cx="231.40890281402335" cy="-11.912346417091385" r="10.836534267780777" fill="rgb(255,77,0)" stroke="black" stroke-width="2" />
<circle cx="-105.71998121699443" cy="-171.18951000371155" r="12.064884313374062" fill="rgb(255,44,0)" stroke="black" stroke-width="2" />
<circle cx="-42.260161423809905" cy="-91.64664882588494" r="12.867277959706104" fill="rgb(0,214,255)" stroke="black" stroke-width="2" />
<circle cx="282.5611895278446" cy="42.35495745068789" r="14.715891298813286" fill="rgb(255,181,0)" stroke="black" stroke-width="2" />
<circle cx="3.4091611514284637" cy="139.49846446808613" r="10.094886573782984" fill="rgb(0,255,40)" stroke="black" stroke-width="2" />
<circle cx="136.26244380101366" cy="265.53709925508474" r="10.797164321765777" fill="rgb(0,255,41)" stroke="black" stroke-width="2" />
<circle cx="-18.07451816482029" cy="-46.656016855289636" r="12.556496485538297" fill="rgb(8,255,0)" stroke="black" stroke-width="2" />
<circle cx="195.13708666720436" cy="-124.83777601969987" r="10.230537401432326" fill="rgb(255,0,132)" stroke="black" stroke-width="2" />
<circle cx="-140.20378022297098" cy="-25.888912933765624" r="13.92777993313711" fill="rgb(255,0,80)" stroke="black" stroke-width="2" />
<circle cx="369.0013969059837" cy="64.97063367202429" r="17.707267631557663" fill="rgb(0,255,211)" stroke="black" stroke-width="2" />
<circle cx="-367.1731503482843" cy="34.69390206397986" r="16.771159511913602" fill="rgb(0,255,54)" stroke="black" stroke-width="2" />
<circle cx="-320.01195802072766" cy="87.78874076016854" r="15.88190296637752" fill="rgb(255,199,0)" stroke="black" stroke-width="2" />
<circle cx="-71.50219341547671" cy="-48.28196937579551" r="16.636688960436395" fill="rgb(121,255,0)" stroke="black" stroke-width="2" />
<circle cx="310.7994164574865" cy="278.9428000867782" r="11.56875315703156" fill="rgb(0,183,255)" stroke="black" stroke-width="2" />
<circle cx="114.76896859915712" cy="14.562440450254485" r="13.09054400201129" fill="rgb(255,0,122)" stroke="black" stroke-width="2" />
<circle cx="208.90091308183526" cy="-28.754739044583943" r="12.87300085284255" fill="rgb(74,255,0)" stroke="black" stroke-width="2" />
<circle cx="-268.5469737151666" cy="82.73744842794497" r="10.754859669598941" fill="rgb(0,255,239)" stroke="black" stroke-width="2" />
<circle cx="44.59224200663289" cy="64.25325489239623" r="10.663304963772775" fill="rgb(0,174,255)" stroke="black" stroke-width="2" />
<circle cx="-244.08032539715916" cy="-86.42359127678318" r="11.374641705074188" fill="rgb(0,255,107)" stroke="black" stroke-width="2" />
<circle cx="302.0392092346144" cy="-153.52905713474524" r="10.529215282249254" fill="rgb(121,0,255)" stroke="black" stroke-width="2" />
<circle cx="-366.5335947334687" cy="154.94139226658677" r="14.529615326428608" fill="rgb(255,0,138)" stroke="black" stroke-width="2" />
<circle cx="-276.0782259347185" cy="-134.05994616675284" r="11.982014268835188" fill="rgb(255,247,0)" stroke="black" stroke-width="2" />
<circle cx="326.74046715908196" cy="163.22665048568712" r="17.246051575686273" fill="rgb(0,255,20)" stroke="black" stroke-width="2" />
<circle cx="-141.86542263123278" cy="192.21023782702304" r="10.04923856501869" fill="rgb(236,255,0)" stroke="black" stroke-width="2" />
<circle cx="-198.0257002563794" cy="-29.78936141181248" r="13.56514139794022" fill="rgb(255,0,197)" stroke="black" stroke-width="2" />
<circle cx="10.978735895483055" cy="-270.49269974163275" r="17.591471931698003" fill="rgb(125,0,255)" stroke="black" stroke-width="2" />
<circle cx="-278.8764118238279" cy="187.48864395905383" r="13.04995873152305" fill="rgb(181,0,255)" stroke="black" stroke-width="2" />
<circle cx="-175.00889250559237" cy="64.92304017373993" r="10.355003539570571" fill="rgb(199,0,255)" stroke="black" stroke-width="2" />
<circle cx="341.4398805799084" cy="278.9496170119171" r="16.281162196797915" fill="rgb(0,255,61)" stroke="black" stroke-width="2" />
<circle cx="-296.4303690802147" cy="-84.36371016340345" r="11.239765083538508" fill="rgb(255,85,0)" stroke="black" stroke-width="2" />
<circle cx="282.2407761068765" cy="-213.46205271705952" r="11.033413368926357" fill="rgb(0,255,161)" stroke="black" stroke-width="2" />
<circle cx="-162.47035942970444" cy="-275.1277532324818" r="19.485106165435994" fill="rgb(96,255,0)" stroke="black" stroke-width="2" />
<circle cx="-170.99914604049548" cy="-150.93463969255944" r="17.603452537984314" fill="rgb(35,0,255)" stroke="black" stroke-width="2" />
<circle cx="-282.37885653327885" cy="-20.15857341813455" r="13.266467155221694" fill="rgb(255,0,145)" stroke="black" stroke-width="2" />
<circle cx="212.03465037718706" cy="-175.32825928358977" r="12.733317188009485" fill="rgb(255,88,0)" stroke="black" stroke-width="2" />
<circle cx="253.80213925419127" cy="137.41197707853576" r="13.249451569348132" fill="rgb(0,255,62)" stroke="black" stroke-width="2" />
<circle cx="308.57513052058414" cy="79.02609983328449" r="10.900397112060448" fill="rgb(62,0,255)" stroke="black" stroke-width="2" />
<circle cx="11.395435005979493" cy="-132.90645925152552" r="12.354941211163286" fill="rgb(0,110,255)" stroke="black" stroke-width="2" />
<circle cx="-191.45388438690506" cy="-191.95248403343697" r="11.16500269881654" fill="rgb(0,255,180)" stroke="black" stroke-width="2" />
<circle cx="-54.657688222942" cy="1.921444520264913" r="13.15866900540771" fill="rgb(110,255,0)" stroke="black" stroke-width="2" />
<circle cx="285.11032863404523" cy="-109.46755536561778" r="10.792856907141932" fill="rgb(255,194,0)" stroke="black" stroke-width="2" />
<circle cx="174.4283747976025" cy="-277.9319708518654" r="10.043306924848704" fill="rgb(255,253,0)" stroke="black" stroke-width="2" />
<circle cx="377.82089998409333" cy="-48.250000442286506" r="13.024573966440483" fill="rgb(109,255,0)" stroke="black" stroke-width="2" />
<circle cx="-118.39097658665486" cy="-58.27164449061743" r="11.090601018186092" fill="rgb(0,255,198)" stroke="black" stroke-width="2" />
<circle cx="89.7405665063298" cy="159.65210507664983" r="12.5686113394722" fill="rgb(208,255,0)" stroke="black" stroke-width="2" />
<circle cx="149.60939576655278" cy="-172.23499206185141" r="11.218594853018374" fill="rgb(179,0,255)" stroke="black" stroke-width="2" />
<circle cx="-32.39641572270955" cy="-273.45912247497097" r="11.56961193076537" fill="rgb(74,0,255)" stroke="black" stroke-width="2" />
<circle cx="-74.62256722300106" cy="118.69036921982229" r="10.539524274039229" fill="rgb(255,0,199)" stroke="black" stroke-width="2" />
<circle cx="325.7351450155272" cy="5.273580168838521" r="13.065012359952409" fill="rgb(255,0,134)" stroke="black" stroke-width="2" />
<circle cx="-26.00460008778498" cy="249.17377912835752" r="10.26678340942958" fill="rgb(255,0,196)" stroke="black" stroke-width="2" />
<circle cx="-276.66744086324815" cy="273.052624872886" r="11.16532211410081" fill="rgb(255,0,36)" stroke="black" stroke-width="2" />
<circle cx="-240.1148632988432" cy="37.05027501950275" r="13.224642354291158" fill="rgb(255,219,0)" stroke="black" stroke-width="2" />
<circle cx="-135.93987668709997" cy="-121.69497953508855" r="17.827851035447885" fill="rgb(103,255,0)" stroke="black" stroke-width="2" />
<circle cx="286.83826106130357" cy="4.645212396337115" r="14.454328239481292" fill="rgb(255,0,130)" stroke="black" stroke-width="2" />
<circle cx="-322.30768666694865" cy="122.01762421735913" r="14.206561811682553" fill="rgb(0,255,34)" stroke="black" stroke-width="2" />
<circle cx="-371.640826886871" cy="-257.9209910088965" r="10.288049595133437" fill="rgb(255,0,219)" stroke="black" stroke-width="2" />
<circle cx="-175.65107757719164" cy="12.12779777891086" r="10.453187412349855" fill="rgb(56,0,255)" stroke="black" stroke-width="2" />
<circle cx="-1.0896622325706176" cy="220.42190452924297" r="10.956020219935324" fill="rgb(120,0,255)" stroke="black" stroke-width="2" />
<circle cx="-205.308328647582" cy="143.12402872115865" r="10.859110737065476" fill="rgb(86,0,255)" stroke="black" stroke-width="2" />
<circle cx="-38.031735452584314" cy="164.27267084973562" r="10.431592955817061" fill="rgb(174,255,0)" stroke="black" stroke-width="2" />
<circle cx="-378.66746612374754" cy="-137.66126452210653" r="11.339945794675755" fill="rgb(164,255,0)" stroke="black" stroke-width="2" />
<circle cx="-148.0634429370786" cy="123.31144292534736" r="15.835383225213912" fill="rgb(255,11,0)" stroke="black" stroke-width="2" />
<circle cx="58.19306292924034" cy="-59.14154875787716" r="12.091694643962025" fill="rgb(0,245,255)" stroke="black" stroke-width="2" />
<circle cx="37.00680651090454" cy="-209.035281580629" r="11.841260681454635" fill="rgb(255,0,140)" stroke="black" stroke-width="2" />
<circle cx="340.22753671818464" cy="-263.639218707271" r="11.595428579889116" fill="rgb(0,212,255)" stroke="black" stroke-width="2" />
<circle cx="189.2797262603616" cy="-99.58354182473238" r="11.961791117448232" fill="rgb(0,114,255)" stroke="black" stroke-width="2" />
<circle cx="-308.80771437619353" cy="177.51802204376355" r="14.780508120404036" fill="rgb(0,126,255)" stroke="black" stroke-width="2" />
<circle cx="125.4002146339115" cy="-231.0597372458456" r="18.66801329657533" fill="rgb(255,0,50)" stroke="black" stroke-width="2" />
<circle cx="-327.940555582808" cy="40.16876345700632" r="16.28149087095274" fill="rgb(255,22,0)" stroke="black" stroke-width="2" />
<circle cx="135.48718757900804" cy="147.90266210795818" r="10.79929190990369" fill="rgb(244,0,255)" stroke="black" stroke-width="2" />
<circle cx="73.19184777499567" cy="179.37103622429453" r="11.81516209583855" fill="rgb(0,149,255)" stroke="black" stroke-width="2" />
<circle cx="65.59978585754624" cy="-19.851925130432676" r="10.23570635277669" fill="rgb(160,255,0)" stroke="black" stroke-width="2" />
<circle cx="-375.07136352086457" cy="107.79812813274492" r="12.894365693942639" fill="rgb(225,0,255)" stroke="black" stroke-width="2" />
<circle cx="89.21082575991204" cy="202.23490317566882" r="12.106995160962985" fill="rgb(255,0,180)" stroke="black" stroke-width="2" />
<circle cx="-129.3936937262962" cy="279.1436302338582" r="11.920619796774387" fill="rgb(81,0,255)" stroke="black" stroke-width="2" />
<circle cx="-171.44299859014708" cy="196.12131581690124" r="11.559465233185156" fill="rgb(145,255,0)" stroke="black" stroke-width="2" />
<circle cx="158.79797645938618" cy="92.31710041498206" r="13.54028887226185" fill="rgb(255,0,180)" stroke="black" stroke-width="2" />
<circle cx="-370.8005344873417" cy="231.61700697340166" r="12.65322131879388" fill="rgb(74,255,0)" stroke="black" stroke-width="2" />
<circle cx="-264.5949551836935" cy="-186.0274191375347" r="10.069664110885007" fill="rgb(0,255,59)" stroke="black" stroke-width="2" />
<circle cx="15.535956497672771" cy="119.07617865646671" r="11.470100543712672" fill="rgb(0,255,80)" stroke="black" stroke-width="2" />
<circle cx="71.81381530526471" cy="225.4764642018959" r="11.28931193271506" fill="rgb(138,255,0)" stroke="black" stroke-width="2" />
<circle cx="-227.03925498556634" cy="61.268047179372104" r="10.78430335729233" fill="rgb(255,0,214)" stroke="black" stroke-width="2" />
<circle cx="162.08261117620123" cy="208.01977684269025" r="10.666582248669808" fill="rgb(0,255,206)" stroke="black" stroke-width="2" />
<circle cx="-143.56718869578899" cy="-53.33344607922862" r="10.652850521392043" fill="rgb(206,255,0)" stroke="black" stroke-width="2" />
<circle cx="-354.1271206366717" cy="-97.52862065742275" r="10.511039850431313" fill="rgb(254,255,0)" stroke="black" stroke-width="2" />
<circle cx="67.56636017007872" cy="-266.30635591603846" r="10.93669296373649" fill="rgb(0,255,215)" stroke="black" stroke-width="2" />
<circle cx="-229.50881319028483" cy="-140.4266429277488" r="14.274363708032713" fill="rgb(0,255,168)" stroke="black" stroke-width="2" />
<circle cx="304.612833088627" cy="-99.75656796964486" r="10.937783586073568" fill="rgb(0,255,201)" stroke="black" stroke-width="2" />
<circle cx="-8.660935404510838" cy="268.8560655426296" r="12.821935541189795" fill="rgb(101,0,255)" stroke="black" stroke-width="2" />
<circle cx="-165.30882905364558" cy="174.2397777391452" r="10.908729934306848" fill="rgb(25,0,255)" stroke="black" stroke-width="2" />
<circle cx="-183.96030703454582" cy="221.9278196415246" r="10.861052924910501" fill="rgb(0,254,255)" stroke="black" stroke-width="2" />
<circle cx="-302.2926200225693" cy="145.99679915107362" r="10.083134150090723" fill="rgb(255,211,0)" stroke="black" stroke-width="2" />
<circle cx="239.6349753786833" cy="-78.46706009405156" r="10.135207956223763" fill="rgb(255,0,77)" stroke="black" stroke-width="2" />
<circle cx="-310.35623882597747" cy="3.339890942354998" r="10.003979365266611" fill="rgb(16,0,255)" stroke="black" stroke-width="2" />
<circle cx="-130.9461826586218" cy="-220.6884474438552" r="12.763172524479849" fill="rgb(0,255,24)" stroke="black" stroke-width="2" />
<circle cx="-25.33050052041972" cy="-72.30579687387223" r="10.7033700088942" fill="rgb(0,255,224)" stroke="black" stroke-width="2" />
<circle cx="48.66020269794569" cy="-87.30916459357712" r="12.076062278745004" fill="rgb(0,255,117)" stroke="black" stroke-width="2" />
<circle cx="105.02859273530026" cy="-131.0000826521132" r="12.489387634365231" fill="rgb(0,255,62)" stroke="black" stroke-width="2" />
<circle cx="185.1733818206966" cy="110.0779462963365" r="11.326773547786697" fill="rgb(255,0,239)" stroke="black" stroke-width="2" />
<circle cx="-180.974190336263" cy="-68.92374440813782" r="16.010452985934112" fill="rgb(255,0,167)" stroke="black" stroke-width="2" />
<circle cx="285.7632472297415" cy="84.76436178653108" r="11.304283251044545" fill="rgb(0,193,255)" stroke="black" stroke-width="2" />
<circle cx="121.5903727319731" cy="-193.08636065840017" r="11.028327866943116" fill="rgb(0,255,221)" stroke="black" stroke-width="2" />
<circle cx="306.25364431836783" cy="135.78253181660972" r="10.715597861535946" fill="rgb(0,255,219)" stroke="black" stroke-width="2" />
<circle cx="342.6374569841381" cy="124.6960851342701" r="11.530913480647103" fill="rgb(37,255,0)" stroke="black" stroke-width="2" />
<circle cx="139.1919633688766" cy="48.19501522865448" r="10.200420551416642" fill="rgb(17,255,0)" stroke="black" stroke-width="2" />
<circle cx="-66.23523757248415" cy="246.1494779135778" r="12.018646521657146" fill="rgb(255,0,164)" stroke="black" stroke-width="2" />
<circle cx="362.1616289945066" cy="97.47433465817994" r="11.859370927603905" fill="rgb(176,255,0)" stroke="black" stroke-width="2" />
<circle cx="345.57158664180815" cy="31.858351259272524" r="13.6652134539628" fill="rgb(0,255,100)" stroke="black" stroke-width="2" />
<circle cx="-136.64970249279312" cy="-243.91382953838882" r="11.067205542545278" fill="rgb(0,252,255)" stroke="black" stroke-width="2" />
<circle cx="-323.4190747065925" cy="233.74541684832218" r="11.366637934647578" fill="rgb(255,0,83)" stroke="black" stroke-width="2" />
<circle cx="-267.5024690694516" cy="-279.84825540969837" r="10.707689260034327" fill="rgb(0,255,173)" stroke="black" stroke-width="2" />
<circle cx="-304.96004196911895" cy="-38.373795050773595" r="13.478593988356696" fill="rgb(255,0,47)" stroke="black" stroke-width="2" />
<circle cx="113.85400030270142" cy="104.00271675136298" r="10.774656063661247" fill="rgb(0,255,29)" stroke="black" stroke-width="2" />
<circle cx="338.7913888875561" cy="204.10733412547182" r="11.728877423651738" fill="rgb(0,167,255)" stroke="black" stroke-width="2" />
<circle cx="215.1494933999387" cy="62.29765926547418" r="10.265308995822327" fill="rgb(117,0,255)" stroke="black" stroke-width="2" />
<circle cx="200.15248811324818" cy="-55.54614411721286" r="11.595818088071566" fill="rgb(0,255,6)" stroke="black" stroke-width="2" />
<circle cx="254.46250396650828" cy="274.75366631687893" r="13.228801882883658" fill="rgb(0,255,250)" stroke="black" stroke-width="2" />
<circle cx="-220.3032845597139" cy="-228.39119024870666" r="10.539504376009525" fill="rgb(200,255,0)" stroke="black" stroke-width="2" />
<circle cx="10.581171723383932" cy="-215.77526419328217" r="12.27172170341056" fill="rgb(0,237,255)" stroke="black" stroke-width="2" />
<circle cx="237.52632011063315" cy="-178.27920282561624" r="10.877710588882653" fill="rgb(255,214,0)" stroke="black" stroke-width="2" />
<circle cx="351.22632076685306" cy="-60.99154082161496" r="11.584853732068478" fill="rgb(221,255,0)" stroke="black" stroke-width="2" />
<circle cx="-181.2551786899013" cy="-9.457939109714175" r="10.361803044023546" fill="rgb(0,196,255)" stroke="black" stroke-width="2" />
<circle cx="180.44272588027832" cy="-9.601435140908734" r="10.093627746258164" fill="rgb(0,77,255)" stroke="black" stroke-width="2" />
<circle cx="261.5946331095482" cy="-205.38389252947167" r="10.42886212122625" fill="rgb(0,221,255)" stroke="black" stroke-width="2" />
<circle cx="-192.9166340829999" cy="-279.8780639508794" r="10.95745018701027" fill="rgb(0,255,30)" stroke="black" stroke-width="2" />
<circle cx="-363.2427091602977" cy="-279.59431319952284" r="12.188270560078593" fill="rgb(0,31,255)" stroke="black" stroke-width="2" />
<circle cx="44.52280193533437" cy="-113.65725007973501" r="14.22993756991055" fill="rgb(255,206,0)" stroke="black" stroke-width="2" />
<circle cx="-379.45015185441986" cy="-84.92344067404207" r="10.252828438098494" fill="rgb(0,221,255)" stroke="black" stroke-width="2" />
<circle cx="342.4047919303996" cy="-95.81739346358819" r="11.079497812166805" fill="rgb(255,87,0)" stroke="black" stroke-width="2" />
<circle cx="272.9259526892298" cy="-273.41403923362066" r="14.557186973178993" fill="rgb(86,0,255)" stroke="black" stroke-width="2" />
<circle cx="-216.9028809628877" cy="275.06991799613945" r="10.508637191524866" fill="rgb(221,255,0)" stroke="black" stroke-width="2" />
<circle cx="-134.7175559373406" cy="84.19831259687277" r="10.842280197689458" fill="rgb(255,0,200)" stroke="black" stroke-width="2" />
<circle cx="184.90884593073838" cy="14.432515732081015" r="10.099017789605986" fill="rgb(255,47,0)" stroke="black" stroke-width="2" />
<circle cx="257.0166207209968" cy="102.27549506157533" r="13.48425643800742" fill="rgb(0,214,255)" stroke="black" stroke-width="2" />
<circle cx="230.57878500126446" cy="47.161473989865215" r="10.242952726764416" fill="rgb(0,145,255)" stroke="black" stroke-width="2" />
<circle cx="-88.64947748478625" cy="-13.499381570541345" r="10.601050849276646" fill="rgb(197,0,255)" stroke="black" stroke-width="2" />
<circle cx="-52.54667208340186" cy="-209.14464441027272" r="10.94645481344479" fill="rgb(53,255,0)" stroke="black" stroke-width="2" />
<circle cx="51.230900503974794" cy="-4.120306179367901" r="10.874497643684695" fill="rgb(255,0,23)" stroke="black" stroke-width="2" />
<circle cx="-66.96011367629274" cy="221.89897787751363" r="11.307276540678313" fill="rgb(118,0,255)" stroke="black" stroke-width="2" />
<circle cx="311.67988540031433" cy="-245.01296801687909" r="13.103503092618007" fill="rgb(255,246,0)" stroke="black" stroke-width="2" />
<circle cx="61.38156900896769" cy="-206.57169365428177" r="11.898790256976191" fill="rgb(0,119,255)" stroke="black" stroke-width="2" />
<circle cx="31.099233287721177" cy="273.24366731286614" r="10.241284022643265" fill="rgb(0,11,255)" stroke="black" stroke-width="2" />
<circle cx="112.50744865525218" cy="152.23605955968918" r="11.243799728742832" fill="rgb(144,255,0)" stroke="black" stroke-width="2" />
<circle cx="-214.65282198426232" cy="116.54639024367577" r="10.046445283010504" fill="rgb(140,0,255)" stroke="black" stroke-width="2" />
<circle cx="146.44920254458566" cy="-279.069876324559" r="12.262024024704317" fill="rgb(255,253,0)" stroke="black" stroke-width="2" />
<circle cx="-306.89547711563307" cy="-127.09479354316142" r="11.268248810346895" fill="rgb(1,255,0)" stroke="black" stroke-width="2" />
<circle cx="50.937087309456274" cy="167.80700020603928" r="13.088969356031015" fill="rgb(255,140,0)" stroke="black" stroke-width="2" />
<circle cx="-78.09960618550707" cy="79.38892145282017" r="10.246697049574744" fill="rgb(181,255,0)" stroke="black" stroke-width="2" />
<circle cx="-298.5154593226418" cy="25.624266387846035" r="11.854328875564873" fill="rgb(255,0,168)" stroke="black" stroke-width="2" />
<circle cx="224.37628493798695" cy="-245.81642113497753" r="10.684335295707498" fill="rgb(0,0,255)" stroke="black" stroke-width="2" />
<circle cx="-242.2544293897179" cy="-41.9635805985784" r="10.117839019952289" fill="rgb(0,236,255)" stroke="black" stroke-width="2" />
<circle cx="-373.6090304706537" cy="-112.50878740448434" r="11.225488198213519" fill="rgb(134,0,255)" stroke="black" stroke-width="2" />
<circle cx="-357.1565441243627" cy="-157.8011496092517" r="10.289544784763407" fill="rgb(252,255,0)" stroke="black" stroke-width="2" />
<circle cx="-194.26732571873737" cy="-219.565761051457" r="10.302668685560736" fill="rgb(211,255,0)" stroke="black" stroke-width="2" />
<circle cx="30.283577350409132" cy="143.01556810713458" r="10.110324127009386" fill="rgb(255,0,113)" stroke="black" stroke-width="2" />
<circle cx="161.19300444436828" cy="147.6667926856269" r="10.843199569730857" fill="rgb(255,0,254)" stroke="black" stroke-width="2" />
<circle cx="143.52741445562413" cy="-88.61767273863359" r="10.489579423418066" fill="rgb(228,0,255)" stroke="black" stroke-width="2" />
<circle cx="251.39707723125912" cy="-104.96260779868209" r="13.896205881279684" fill="rgb(24,255,0)" stroke="black" stroke-width="2" />
<circle cx="-221.2363533445467" cy="-98.96543273907685" r="12.224182986984447" fill="rgb(0,255,254)" stroke="black" stroke-width="2" />
<circle cx="185.21227477338198" cy="133.685646423496" r="11.612694515436393" fill="rgb(33,0,255)" stroke="black" stroke-width="2" />
<circle cx="337.6654267726318" cy="-164.89692832610007" r="10.76434212300549" fill="rgb(255,0,215)" stroke="black" stroke-width="2" />
<path d="M-400.0,-300.0 L400.0,-300.0" stroke="gray" stroke-width="1" />
<path d="M-400.0,-260.0 L400.0,-260.0" stroke="gray" stroke-width="1" />
<path d="M-400.0,-220.0 L400.0,-220.0" stroke="gray" stroke-width="1" />
<path d="M-400.0,-180.0 L400.0,-180.0" stroke="gray" stroke-width="1" />
<path d="M-400.0,-140.0 L400.0,-140.0" stroke="gray" stroke-width="1" />
<path d="M-400.0,-100.0 L400.0,-100.0" stroke="gray" stroke-width="1" />
<path d="M-400.0,-60.0 L400.0,-60.0" stroke="gray" stroke-width="1" />
<path d="M-400.0,-20.0 L400.0,-20.0" stroke="gray" stroke-width="1" />
<path d="M-400.0,20.0 L400.0,20.0" stroke="gray" stroke-width="1" />
<path d="M-400.0,60.0 L400.0,60.0" stroke="gray" stroke-width="1" />
<path d="M-400.0,100.0 L400.0,100.0" stroke="gray" stroke-width="1" />
<path d="M-400.0,140.0 L400.0,140.0" stroke="gray" stroke-width="1" />
<path d="M-400.0,180.0 L400.0,180.0" stroke="gray" stroke-width="1" />
<path d="M-400.0,220.0 L400.0,220.0" stroke="gray" stroke-width="1" />
<path d="M-400.0,260.0 L400.0,260.0" stroke="gray" stroke-width="1" />
<path d="M-400.0,300.0 L400.0,300.0" stroke="gray" stroke-width="1" />
<path d="M-400,-300.0 L-400,300.0" stroke="gray" stroke-width="1" />
<path d="M-360,-300.0 L-360,300.0" stroke="gray" stroke-width="1" />
<path d="M-320,-300.0 L-320,300.0" stroke="gray" stroke-width="1" />
<path d="M-280,-300.0 L-280,300.0" stroke="gray" stroke-width="1" />
<path d="M-240,-300.0 L-240,300.0" stroke="gray" stroke-width="1" />
<path d="M-200,-300.0 L-200,300.0" stroke="gray" stroke-width="1" />
<path d="M-160,-300.0 L-160,300.0" stroke="gray" stroke-width="1" />
<path d="M-120,-300.0 L-120,300.0" stroke="gray" stroke-width="1" />
<path d="M-80,-300.0 L-80,300.0" stroke="gray" stroke-width="1" />
<path d="M-40,-300.0 L-40,300.0" stroke="gray" stroke-width="1" />
<path d="M0,-300.0 L0,300.0" stroke="gray" stroke-width="1" />
<path d="M40,-300.0 L40,300.0" stroke="gray" stroke-width="1" />
<path d="M80,-300.0 L80,300.0" stroke="gray" stroke-width="1" />
<path d="M120,-300.0 L120,300.0" stroke="gray" stroke-width="1" />
<path d="M160,-300.0 L160,300.0" stroke="gray" stroke-width="1" />
<path d="M200,-300.0 L200,300.0" stroke="gray" stroke-width="1" />
<path d="M240,-300.0 L240,300.0" stroke="gray" stroke-width="1" />
<path d="M280,-300.0 L280,300.0" stroke="gray" stroke-width="1" />
<path d="M320,-300.0 L320,300.0" stroke="gray" stroke-width="1" />
<path d="M360,-300.0 L360,300.0" stroke="gray" stroke-width="1" />
<path d="M400,-300.0 L400,300.0" stroke="gray" stroke-width="1" />
</svg>