<?xml version="1.0" encoding="UTF-8"?>
<svg xmlns="http://www.w3.org/2000/svg" xmlns:xlink="http://www.w3.org/1999/xlink"
     width="1550.0" height="50.0" viewBox="-1 -1 1552.0 52.0">
<defs>
</defs>
<rect x="0.0" y="0" width="50.0" height="50.0" fill="none" stroke="gray" stroke-width="1" />
<text x="24.8" y="24.8" font-size="31.25" fill="black" text-anchor="middle" alignment-baseline="middle" font-family="courier" font-weight="bold">0</text>
<rect x="50.0" y="0" width="50.0" height="50.0" fill="none" stroke="gray" stroke-width="1" />
<text x="74.8" y="24.8" font-size="31.25" fill="black" text-anchor="middle" alignment-baseline="middle" font-family="courier" font-weight="bold">0</text>
<rect x="100.0" y="0" width="50.0" height="50.0" fill="none" stroke="gray" stroke-width="1" />
<text x="124.8" y="24.8" font-size="31.25" fill="black" text-anchor="middle" alignment-baseline="middle" font-family="courier" font-weight="bold">0</text>
<rect x="150.0" y="0" width="50.0" height="50.0" fill="none" stroke="gray" stroke-width="1" />
<text x="174.8" y="24.8" font-size="31.25" fill="black" text-anchor="middle" alignment-baseline="middle" font-family="courier" font-weight="bold">0</text>
<path d="M200.0,0 L200.0,50.0" stroke="rgb(80, 80, 80)" stroke-width="3" />
<rect x="200.0" y="0" width="50.0" height="50.0" fill="none" stroke="gray" stroke-width="1" />
<rect x="200.0" y="0" width="50.0" height="50.0" fill="rgb(255,0,0)" fill-opacity="0.25" />
<text x="224.8" y="24.8" font-size="31.25" fill="black" text-anchor="middle" alignment-baseline="middle" font-family="courier" font-weight="bold">0</text>
<rect x="250.0" y="0" width="50.0" height="50.0" fill="none" stroke="gray" stroke-width="1" />
<rect x="250.0" y="0" width="50.0" height="50.0" fill="rgb(127,0,255)" fill-opacity="0.25" />
<text x="274.8" y="24.8" font-size="31.25" fill="black" text-anchor="middle" alignment-baseline="middle" font-family="courier" font-weight="bold">2</text>
<rect x="300.0" y="0" width="50.0" height="50.0" fill="none" stroke="gray" stroke-width="1" />
<text x="324.8" y="24.8" font-size="31.25" fill="black" text-anchor="middle" alignment-baseline="middle" font-family="courier" font-weight="bold">2</text>
<rect x="350.0" y="0" width="50.0" height="50.0" fill="none" stroke="gray" stroke-width="1" />
<text x="374.8" y="24.8" font-size="31.25" fill="black" text-anchor="middle" alignment-baseline="middle" font-family="courier" font-weight="bold">2</text>
<path d="M400.0,0 L400.0,50.0" stroke="rgb(80, 80, 80)" stroke-width="3" />
<rect x="400.0" y="0" width="50.0" height="50.0" fill="none" stroke="gray" stroke-width="1" />
<text x="424.8" y="24.8" font-size="31.25" fill="black" text-anchor="middle" alignment-baseline="middle" font-family="courier" font-weight="bold">2</text>
<rect x="450.0" y="0" width="50.0" height="50.0" fill="none" stroke="gray" stroke-width="1" />
<text x="474.8" y="24.8" font-size="31.25" fill="black" text-anchor="middle" alignment-baseline="middle" font-family="courier" font-weight="bold">2</text>
<rect x="500.0" y="0" width="50.0" height="50.0" fill="none" stroke="gray" stroke-width="1" />
<text x="524.8" y="24.8" font-size="31.25" fill="black" text-anchor="middle" alignment-baseline="middle" font-family="courier" font-weight="bold">2</text>
<rect x="550.0" y="0" width="50.0" height="50.0" fill="none" stroke="gray" stroke-width="1" />
<rect x="550.0" y="0" width="50.0" height="50.0" fill="rgb(127,255,0)" fill-opacity="0.25" />
<text x="574.8" y="24.8" font-size="31.25" fill="black" text-anchor="middle" alignment-baseline="middle" font-family="courier" font-weight="bold">2</text>
<path d="M600.0,0 L600.0,50.0" stroke="rgb(80, 80, 80)" stroke-width="3" />
<rect x="600.0" y="0" width="50.0" height="50.0" fill="none" stroke="gray" stroke-width="1" />
<text x="624.8" y="24.8" font-size="31.25" fill="black" text-anchor="middle" alignment-baseline="middle" font-family="courier" font-weight="bold">4</text>
<rect x="650.0" y="0" width="50.0" height="50.0" fill="none" stroke="gray" stroke-width="1" />
<text x="674.8" y="24.8" font-size="31.25" fill="black" text-anchor="middle" alignment-baseline="middle" font-family="courier" font-weight="bold">4</text>
<rect x="700.0" y="0" width="50.0" height="50.0" fill="none" stroke="gray" stroke-width="1" />
<text x="724.8" y="24.8" font-size="31.25" fill="black" text-anchor="middle" alignment-baseline="middle" font-family="courier" font-weight="bold">4</text>
<rect x="750.0" y="0" width="50.0" height="50.0" fill="none" stroke="gray" stroke-width="1" />
<text x="774.8" y="24.8" font-size="31.25" fill="black" text-anchor="middle" alignment-baseline="middle" font-family="courier" font-weight="bold">4</text>
<path d="M800.0,0 L800.0,50.0" stroke="rgb(80, 80, 80)" stroke-width="3" />
<rect x="800.0" y="0" width="50.0" height="50.0" fill="none" stroke="gray" stroke-width="1" />
<rect x="800.0" y="0" width="50.0" height="50.0" fill="rgb(0,254,255)" fill-opacity="0.25" />
<text x="824.8" y="24.8" font-size="31.25" fill="black" text-anchor="middle" alignment-baseline="middle" font-family="courier" font-weight="bold">6</text>
<rect x="850.0" y="0" width="50.0" height="50.0" fill="none" stroke="gray" stroke-width="1" />
<text x="874.8" y="24.8" font-size="31.25" fill="black" text-anchor="middle" alignment-baseline="middle" font-family="courier" font-weight="bold">6</text>
<rect x="900.0" y="0" width="50.0" height="50.0" fill="none" stroke="gray" stroke-width="1" />
<text x="924.8" y="24.8" font-size="31.25" fill="black" text-anchor="middle" alignment-baseline="middle" font-family="courier" font-weight="bold">6</text>
<rect x="950.0" y="0" width="50.0" height="50.0" fill="none" stroke="gray" stroke-width="1" />
<text x="974.8" y="24.8" font-size="31.25" fill="black" text-anchor="middle" alignment-baseline="middle" font-family="courier" font-weight="bold">6</text>
<path d="M1000.0,0 L1000.0,50.0" stroke="rgb(80, 80, 80)" stroke-width="3" />
<rect x="1000.0" y="0" width="50.0" height="50.0" fill="none" stroke="gray" stroke-width="1" />
<text x="1024.8" y="24.8" font-size="31.25" fill="black" text-anchor="middle" alignment-baseline="middle" font-family="courier" font-weight="bold">6</text>
<rect x="1050.0" y="0" width="50.0" height="50.0" fill="none" stroke="gray" stroke-width="1" />
<text x="1074.8" y="24.8" font-size="31.25" fill="black" text-anchor="middle" alignment-baseline="middle" font-family="courier" font-weight="bold">6</text>
<rect x="1100.0" y="0" width="50.0" height="50.0" fill="none" stroke="gray" stroke-width="1" />
<text x="1124.8" y="24.8" font-size="31.25" fill="black" text-anchor="middle" alignment-baseline="middle" font-family="courier" font-weight="bold">6</text>
<rect x="1150.0" y="0" width="50.0" height="50.0" fill="none" stroke="gray" stroke-width="1" />
<text x="1174.8" y="24.8" font-size="31.25" fill="black" text-anchor="middle" alignment-baseline="middle" font-family="courier" font-weight="bold">6</text>
<rect x="550.0" y="0" width="50.0" height="50.0" fill="none" stroke="red" stroke-width="3" />
<rect x="1250.0" y="0" width="50.0" height="50.0" fill="rgb(255,0,0)" fill-opacity="0.25" stroke="gray" stroke-width="1" />
<text x="1274.8" y="24.8" font-size="31.25" fill="black" text-anchor="middle" alignment-baseline="middle" font-family="courier" font-weight="bold">1</text>
<rect x="1300.0" y="0" width="50.0" height="50.0" fill="rgb(127,0,255)" fill-opacity="0.25" stroke="gray" stroke-width="1" />
<rect x="1350.0" y="0" width="50.0" height="50.0" fill="rgb(127,255,0)" fill-opacity="0.25" stroke="gray" stroke-width="1" />
<text x="1374.8" y="24.8" font-size="31.25" fill="black" text-anchor="middle" alignment-baseline="middle" font-family="courier" font-weight="bold">3</text>
<rect x="1400.0" y="0" width="50.0" height="50.0" fill="rgb(127,255,0)" fill-opacity="0.25" stroke="gray" stroke-width="1" />
<text x="1424.8" y="24.8" font-size="31.25" fill="black" text-anchor="middle" alignment-baseline="middle" font-family="courier" font-weight="bold">2</text>
<rect x="1450.0" y="0" width="50.0" height="50.0" fill="rgb(0,254,255)" fill-opacity="0.25" stroke="gray" stroke-width="1" />
<rect x="1500.0" y="0" width="50.0" height="50.0" fill="rgb(0,254,255)" fill-opacity="0.25" stroke="gray" stroke-width="1" />
</svg>