<?xml version="1.0" encoding="UTF-8"?>
<svg xmlns="http://www.w3.org/2000/svg" xmlns:xlink="http://www.w3.org/1999/xlink"
     width="600" height="400" viewBox="-1 -1 602 402">
<defs>
</defs>
<path d="M0,0 L600,0" stroke="gray" stroke-width="3" />
<path d="M0,100 L600,100" stroke="gray" stroke-width="3" />
<path d="M0,200 L600,200" stroke="gray" stroke-width="3" />
<path d="M0,300 L600,300" stroke="gray" stroke-width="3" />
<path d="M0,400 L600,400" stroke="gray" stroke-width="3" />
<path d="M0,0 L0,400" stroke="gray" stroke-width="3" />
<path d="M100,0 L100,400" stroke="gray" stroke-width="3" />
<path d="M200,0 L200,400" stroke="gray" stroke-width="3" />
<path d="M300,0 L300,400" stroke="gray" stroke-width="3" />
<path d="M400,0 L400,400" stroke="gray" stroke-width="3" />
<path d="M500,0 L500,400" stroke="gray" stroke-width="3" />
<path d="M600,0 L600,400" stroke="gray" stroke-width="3" />
<rect x="100" y="0" width="100" height="100" fill="rgb(255,0,0)" fill-opacity="0.25" />
<circle cx="151.52337584852583" cy="45.024262181033436" r="13.690639231989458" fill="rgb(80, 80, 80)" />
<rect x="200" y="300" width="100" height="100" fill="rgb(127,255,0)" fill-opacity="0.25" />
<circle cx="256.01267974294933" cy="357.4591442260949" r="22.922183459457784" fill="rgb(80, 80, 80)" />
<circle cx="229.60485495527675" cy="325.5723175147476" r="14.283671698496882" fill="rgb(80, 80, 80)" />
<rect x="400" y="0" width="100" height="100" fill="rgb(0,254,255)" fill-opacity="0.25" />
<circle cx="427.8694175351439" cy="65.00082526795069" r="22.585698852124462" fill="rgb(80, 80, 80)" />
<circle cx="457.5632240805152" cy="34.68812756354867" r="14.41889081515007" fill="rgb(80, 80, 80)" />
<rect x="100" y="100" width="100" height="100" fill="rgb(127,0,255)" fill-opacity="0.25" />
<circle cx="142.2277868306128" cy="130.64487219302038" r="18.34272466937392" fill="rgb(80, 80, 80)" />
</svg>