<?xml version="1.0" encoding="UTF-8"?>
<svg xmlns="http://www.w3.org/2000/svg" xmlns:xlink="http://www.w3.org/1999/xlink"
     width="1200.0" height="200.0" viewBox="-1 -1 1202.0 202.0">
<defs>
</defs>
<rect x="0.0" y="0" width="50.0" height="50.0" fill="none" stroke="gray" stroke-width="1" />
<rect x="50.0" y="0" width="50.0" height="50.0" fill="none" stroke="gray" stroke-width="1" />
<rect x="100.0" y="0" width="50.0" height="50.0" fill="none" stroke="gray" stroke-width="1" />
<rect x="150.0" y="0" width="50.0" height="50.0" fill="none" stroke="gray" stroke-width="1" />
<rect x="200.0" y="0" width="50.0" height="50.0" fill="none" stroke="gray" stroke-width="1" />
<path d="M200.0,0 L200.0,50.0" stroke="rgb(80, 80, 80)" stroke-width="3" />
<rect x="250.0" y="0" width="50.0" height="50.0" fill="none" stroke="gray" stroke-width="1" />
<rect x="300.0" y="0" width="50.0" height="50.0" fill="none" stroke="gray" stroke-width="1" />
<rect x="350.0" y="0" width="50.0" height="50.0" fill="none" stroke="gray" stroke-width="1" />
<rect x="400.0" y="0" width="50.0" height="50.0" fill="none" stroke="gray" stroke-width="1" />
<path d="M400.0,0 L400.0,50.0" stroke="rgb(80, 80, 80)" stroke-width="3" />
<rect x="450.0" y="0" width="50.0" height="50.0" fill="none" stroke="gray" stroke-width="1" />
<rect x="500.0" y="0" width="50.0" height="50.0" fill="none" stroke="gray" stroke-width="1" />
<rect x="550.0" y="0" width="50.0" height="50.0" fill="none" stroke="gray" stroke-width="1" />
<rect x="600.0" y="0" width="50.0" height="50.0" fill="none" stroke="gray" stroke-width="1" />
<path d="M600.0,0 L600.0,50.0" stroke="rgb(80, 80, 80)" stroke-width="3" />
<rect x="650.0" y="0" width="50.0" height="50.0" fill="none" stroke="gray" stroke-width="1" />
<rect x="700.0" y="0" width="50.0" height="50.0" fill="none" stroke="gray" stroke-width="1" />
<rect x="750.0" y="0" width="50.0" height="50.0" fill="none" stroke="gray" stroke-width="1" />
<rect x="800.0" y="0" width="50.0" height="50.0" fill="none" stroke="gray" stroke-width="1" />
<path d="M800.0,0 L800.0,50.0" stroke="rgb(80, 80, 80)" stroke-width="3" />
<rect x="850.0" y="0" width="50.0" height="50.0" fill="none" stroke="gray" stroke-width="1" />
<rect x="900.0" y="0" width="50.0" height="50.0" fill="none" stroke="gray" stroke-width="1" />
<rect x="950.0" y="0" width="50.0" height="50.0" fill="none" stroke="gray" stroke-width="1" />
<rect x="1000.0" y="0" width="50.0" height="50.0" fill="none" stroke="gray" stroke-width="1" />
<path d="M1000.0,0 L1000.0,50.0" stroke="rgb(80, 80, 80)" stroke-width="3" />
<rect x="1050.0" y="0" width="50.0" height="50.0" fill="none" stroke="gray" stroke-width="1" />
<rect x="1100.0" y="0" width="50.0" height="50.0" fill="none" stroke="gray" stroke-width="1" />
<rect x="1150.0" y="0" width="50.0" height="50.0" fill="none" stroke="gray" stroke-width="1" />
<rect x="200.0" y="0" width="50.0" height="50.0" fill="rgb(255,0,0)" fill-opacity="0.25" />
<path d="M225.0,50.0 L225.0,65.0" stroke="rgb(80, 80, 80)" stroke-width="4" />
<path d="M225.0,75.0 L217.5,65.0 L232.5,65.0 Z" fill="rgb(80, 80, 80)" />
<rect x="200.0" y="75.0" width="50.0" height="50.0" fill="none" stroke="gray" stroke-width="1" />
<text x="224.8" y="99.8" font-size="31.25" fill="black" text-anchor="middle" alignment-baseline="middle" font-family="courier" font-weight="bold">1</text>
<rect x="550.0" y="0" width="50.0" height="50.0" fill="rgb(127,255,0)" fill-opacity="0.25" />
<path d="M575.0,50.0 L575.0,65.0" stroke="rgb(80, 80, 80)" stroke-width="4" />
<path d="M575.0,75.0 L567.5,65.0 L582.5,65.0 Z" fill="rgb(80, 80, 80)" />
<rect x="550.0" y="75.0" width="50.0" height="50.0" fill="none" stroke="gray" stroke-width="1" />
<text x="574.8" y="99.8" font-size="31.25" fill="black" text-anchor="middle" alignment-baseline="middle" font-family="courier" font-weight="bold">2</text>
<path d="M575.0,125.0 L575.0,140.0" stroke="rgb(80, 80, 80)" stroke-width="4" />
<path d="M575.0,150.0 L567.5,140.0 L582.5,140.0 Z" fill="rgb(80, 80, 80)" />
<rect x="550.0" y="150.0" width="50.0" height="50.0" fill="none" stroke="gray" stroke-width="1" />
<text x="574.8" y="174.8" font-size="31.25" fill="black" text-anchor="middle" alignment-baseline="middle" font-family="courier" font-weight="bold">3</text>
<rect x="800.0" y="0" width="50.0" height="50.0" fill="rgb(0,254,255)" fill-opacity="0.25" />
<path d="M825.0,50.0 L825.0,65.0" stroke="rgb(80, 80, 80)" stroke-width="4" />
<path d="M825.0,75.0 L817.5,65.0 L832.5,65.0 Z" fill="rgb(80, 80, 80)" />
<rect x="800.0" y="75.0" width="50.0" height="50.0" fill="none" stroke="gray" stroke-width="1" />
<text x="824.8" y="99.8" font-size="31.25" fill="black" text-anchor="middle" alignment-baseline="middle" font-family="courier" font-weight="bold">4</text>
<path d="M825.0,125.0 L825.0,140.0" stroke="rgb(80, 80, 80)" stroke-width="4" />
<path d="M825.0,150.0 L817.5,140.0 L832.5,140.0 Z" fill="rgb(80, 80, 80)" />
<rect x="800.0" y="150.0" width="50.0" height="50.0" fill="none" stroke="gray" stroke-width="1" />
<text x="824.8" y="174.8" font-size="31.25" fill="black" text-anchor="middle" alignment-baseline="middle" font-family="courier" font-weight="bold">5</text>
<rect x="250.0" y="0" width="50.0" height="50.0" fill="rgb(127,0,255)" fill-opacity="0.25" />
<path d="M275.0,50.0 L275.0,65.0" stroke="rgb(80, 80, 80)" stroke-width="4" />
<path d="M275.0,75.0 L267.5,65.0 L282.5,65.0 Z" fill="rgb(80, 80, 80)" />
<rect x="250.0" y="75.0" width="50.0" height="50.0" fill="none" stroke="gray" stroke-width="1" />
<text x="274.8" y="99.8" font-size="31.25" fill="black" text-anchor="middle" alignment-baseline="middle" font-family="courier" font-weight="bold">6</text>
</svg>