v -0.3535533905932738 0 -0.3535533905932738
v -0.3535533905932738 0 0.3535533905932738
v 0.3535533905932738 0 0.3535533905932738
v 0.3535533905932738 0 -0.3535533905932738
v 0 0.5 0
v 0 -0.5 0
vt 0 0
vt 1 0
vt 0.5 1
vt 0 0
vt 1 0
vt 0.5 1
vt 0 0
vt 1 0
vt 0.5 1
vt 0 0
vt 1 0
vt 0.5 1
vt 0 0
vt 1 0
vt 0.5 1
vt 0 0
vt 1 0
vt 0.5 1
vt 0 0
vt 1 0
vt 0.5 1
vt 0 0
vt 1 0
vt 0.5 1
vn 0.0 0.5773502691896257 -0.8164965809277259
vn 0.8164965809277259 0.5773502691896257 -0.0
vn 0.0 0.5773502691896257 0.8164965809277259
vn -0.8164965809277259 0.5773502691896257 0.0
vn 0.0 -0.5773502691896257 -0.8164965809277259
vn 0.8164965809277259 -0.5773502691896257 0.0
vn 0.0 -0.5773502691896257 0.8164965809277259
vn -0.8164965809277259 -0.5773502691896257 -0.0
f 1/1/1 5/2/1 4/3/1
f 4/4/2 5/5/2 3/6/2
f 3/7/3 5/8/3 2/9/3
f 2/10/4 5/11/4 1/12/4
f 1/13/5 4/14/5 6/15/5
f 4/16/6 3/17/6 6/18/6
f 3/19/7 2/20/7 6/21/7
f 2/22/8 1/23/8 6/24/8
